<?xml version="1.0" standalone="no"?>
<!DOCTYPE svg PUBLIC "-//W3C//DTD SVG 20010904//EN"
 "http://www.w3.org/TR/2001/REC-SVG-20010904/DTD/svg10.dtd">
<svg version="1.0" xmlns="http://www.w3.org/2000/svg"
 width="512.000000pt" height="512.000000pt" viewBox="0 0 512.000000 512.000000"
 preserveAspectRatio="xMidYMid meet">

<g transform="translate(0.000000,512.000000) scale(0.100000,-0.100000)"
fill="#000000" stroke="none">
<path d="M1143 4958 c-274 -23 -497 -123 -676 -301 -189 -189 -281 -404 -307
-721 -14 -177 -14 -2576 1 -2756 25 -309 117 -526 305 -714 158 -158 323 -241
584 -292 74 -15 187 -18 878 -21 l792 -4 0 805 0 806 -270 0 -270 0 0 325 0
325 270 0 270 0 0 279 c0 311 9 393 61 535 78 215 227 362 445 437 l99 34 348
3 347 3 0 -290 0 -290 -222 -3 c-220 -3 -224 -3 -274 -30 -56 -29 -99 -75
-121 -125 -10 -24 -13 -96 -13 -288 l0 -255 300 0 301 0 -6 -32 c-3 -18 -16
-141 -30 -273 -14 -132 -28 -257 -31 -278 l-6 -37 -269 0 -269 0 0 -825 0
-825 209 0 c390 0 601 31 776 114 122 58 172 93 274 190 178 173 266 350 313
631 18 110 17 2828 -1 2950 -41 267 -131 456 -300 623 -184 183 -399 275 -703
302 -141 12 -2660 11 -2805 -2z"/>
</g>
</svg>
