<?xml version="1.0" standalone="no"?>
<!DOCTYPE svg PUBLIC "-//W3C//DTD SVG 20010904//EN"
 "http://www.w3.org/TR/2001/REC-SVG-20010904/DTD/svg10.dtd">
<svg version="1.0" xmlns="http://www.w3.org/2000/svg"
 width="225.000000pt" height="225.000000pt" viewBox="0 0 225.000000 225.000000"
 preserveAspectRatio="xMidYMid meet">

<g transform="translate(0.000000,225.000000) scale(0.100000,-0.100000)"
fill="#000000" stroke="none">
<path d="M969 2140 c-223 -40 -410 -138 -564 -295 -134 -137 -230 -317 -269
-507 -20 -96 -21 -291 -2 -390 80 -415 424 -748 836 -809 117 -17 333 -7 435
21 94 25 221 83 302 138 65 45 174 154 220 222 132 194 196 466 167 708 l-7
52 -478 0 -479 0 0 -170 0 -170 286 0 287 0 -7 -32 c-3 -18 -22 -67 -43 -108
-95 -196 -307 -309 -553 -297 -164 8 -309 76 -425 199 -148 156 -206 375 -155
587 29 121 80 212 170 301 222 222 556 252 796 70 l51 -38 134 134 134 134
-30 25 c-112 94 -258 170 -395 206 -93 24 -325 35 -411 19z"/>
</g>
</svg>
