<?xml version="1.0" encoding="utf-8"?>
<!-- Generator: Adobe Illustrator 26.2.1, SVG Export Plug-In . SVG Version: 6.00 Build 0)  -->
<svg version="1.1" id="Livello_1" xmlns="http://www.w3.org/2000/svg" xmlns:xlink="http://www.w3.org/1999/xlink" x="0px" y="0px"
	 viewBox="0 0 1920 1080" style="enable-background:new 0 0 1920 1080;" xml:space="preserve">
<style type="text/css">
	.st0{fill:#FF2A2A;}
	.st1{stroke:#000000;stroke-width:6;stroke-miterlimit:10;}
	.st2{fill:#FF0000;}
</style>
<g id="Livello_2_00000106848205515008034580000012265246979005247152_">
	<g id="Livello_4">
		<path d="M1305.7,407.2l-4.8,0.4v31.7l2.6-1c1.4-0.6,5.8-1,9.9-1c8.9,0,18.4,2.7,24,6.8c21.8,16,7.2,42.4-23.5,42.5
			c-5,0.1-9.4-0.4-10.7-1.1l-2.3-1.2v57.8l26.3,28.4l26.2,28.3l21.3,0.1c17.6,0,21.2-0.2,20.5-1.2c-0.4-0.8-17.2-19-37.3-40.6
			s-36.6-39.6-36.8-40s2-1,4.7-1.2c4.1-0.6,8.2-1.6,12.1-3c19.4-6.5,34.1-20.7,39.4-38c2-6.6,2.1-18.2,0.1-25.4
			C1370.1,422.7,1339.2,404.4,1305.7,407.2z"/>
		<path d="M1250.9,503.3V599h32V407.5h-32V503.3z"/>
		<path d="M1421.6,408c-0.4,0.4-0.7,43.8-0.7,96.4V600h33l-0.2-96.1l-0.3-96l-15.6-0.3C1429.3,407.5,1422,407.7,1421.6,408z"/>
		<path d="M415.6,405.6c-1,1-0.9,195.2,0.1,195.7c0.4,0.3,28.5,0.3,62.5-0.1l61.7-0.5V569h-92l-0.2-81.8l-0.3-81.7l-15.6-0.3
			C423.3,405.1,416,405.3,415.6,405.6z"/>
		<path d="M456.9,422v16h80v-32h-80V422z"/>
		<path d="M805.9,496.2c0,90.1,0,90.2,2.1,94.6c5.2,10.7,19.9,14.1,30.1,7c2.3-1.6,28-35.9,57.4-77c0.8-1.1,0.2-55.8,0.2-52.7
			c-21,25.8-11.2,13-27.7,35.8l-30.1,41.4V406h-32L805.9,496.2z"/>
		<path d="M577.8,410.2c13,33.9,71.7,182,72.7,183.6c1.9,2.9,7,6,11.2,6.8c5.3,1,10.1-0.5,14.3-4.4c3.6-3.3,7.1-11,34.3-74.7
			l30.4-71l-18.1-0.3c-9.9-0.1-18.4,0.1-18.8,0.5s-9.2,20.5-19.5,44.7c-17,39.9-18.8,43.7-19.9,41.5c-0.6-1.3-12.3-30.9-26-65.7
			L613.6,408h-36.7L577.8,410.2z"/>
		<path d="M721.1,409.7c-1.4,2.7-12.2,28.1-12.2,28.7c0,0.3,8.3,0.6,18.4,0.6h18.3l3.1-7.3c1.7-3.9,4.6-10.9,6.6-15.5l3.5-8.2h-18.4
			C723.9,408,721.9,408.2,721.1,409.7z"/>
		<path class="st0" d="M1109.5,487.3c-10.3,6.4-11.7,21.4-2.8,28.9c11.7,9.8,27.9,3.2,29.9-12.2c0.7-5.1-2.5-12-7.2-15.6
			C1124.1,484.4,1115.1,483.9,1109.5,487.3z"/>
		<path class="st1" d="M498.2,495.7l-17.3,0.3v17h54v-18l-9.7,0.2C519.8,495.3,507.6,495.6,498.2,495.7z"/>
		<path d="M1467.9,584v16h70v-32h-70V584z"/>
		<path d="M992.8,496.9c0,90.1,0,90.2-2,94.6c-5.1,10.7-19.4,14.1-29.4,7c-2.2-1.6-27.3-35.9-56-77c-0.7-1.1,0.4-55.8-0.6-53.5
			c19.3,26,9.7,13.2,27.4,36.5l29.3,41.4V406.7h31.2V496.9z"/>
		<path d="M1585.5,384.3c-2.5,1.2-4.8,3-6.5,5.2l-2.4,3.4l-0.3,100.6l-0.2,100.6l2.3,3.4c1.6,2.2,3.5,4.1,5.7,5.7
			c4.8,3.3,12.7,2.8,18.8-1.2l4.2-2.9V388.6l-6.2-3.1C1593.8,381.9,1591.2,381.7,1585.5,384.3z"/>
		<path d="M1626.1,421.4v19l39.3,26.1c21.5,14.4,39.6,26.5,40.1,26.9s-17.2,12.9-39.3,27.6l-40.1,26.7l0.1,12.6
			c0.1,6.9,0.4,15.4,0.8,18.9l0.6,6.2l51.5-34.3c55.4-37,56.4-37.9,59.6-48.4c2.9-9.9,0.5-20.5-6.3-28.2
			c-2.4-2.9-20.3-15.4-54.5-38.2c-27.9-18.6-51-33.9-51.3-33.9S1626.1,410.9,1626.1,421.4z"/>
		<path d="M218.5,384.3c-2.5,1.2-4.8,3-6.5,5.2l-2.4,3.4l-0.3,100.6l-0.2,100.6l2.3,3.4c1.6,2.2,3.5,4.1,5.7,5.7
			c4.8,3.3,12.7,2.8,18.8-1.2l4.2-2.9V388.6l-6.2-3.1C226.8,381.9,224.2,381.7,218.5,384.3z"/>
		<path d="M259.1,421.4v19l39.3,26.1c21.5,14.4,39.6,26.5,40.1,26.9s-17.2,12.9-39.3,27.6l-40.1,26.7l0.1,12.6
			c0.1,6.9,0.4,15.4,0.8,18.9l0.6,6.2l51.5-34.3c55.4-37,56.4-37.9,59.6-48.4c2.9-9.9,0.5-20.5-6.3-28.2
			c-2.4-2.9-20.3-15.4-54.5-38.2c-27.9-18.6-51-33.9-51.3-33.9S259.1,410.9,259.1,421.4z"/>
		<path d="M1100.9,406.4c-5,1.2-9.9,2.7-14.7,4.4c-7.7,3-22.9,12-22.9,13.7c0,0.4,5.2,5.6,11.5,11.5l11.6,10.7l4.2-2.4
			c22.2-12.9,50.6-8.4,69.5,10.8c13,13.3,19,28.2,18.9,47.2c-0.1,11.8-1.8,19.8-6.7,30.2l-3,6.7l6.3,5.8
			c17.5,16.4,16.7,15.7,18.2,14.4c0.9-0.6,3.8-5.7,6.7-11.3c27.8-55.4,0.7-122.1-56.9-139.6C1132.4,405,1111.9,404.1,1100.9,406.4z"
			/>
		<path d="M1042.9,445.6c-8.2,12.2-13.6,26.1-16,40.6c-1.8,11-0.8,32.1,2,42.3c7.5,27.5,25.6,49.8,50.5,62.1
			c14,6.9,22.3,8.7,39.5,8.7c12.9,0,15.5-0.3,23.5-2.7c5.5-1.7,10.8-3.7,16-6.1c8.1-3.9,19.8-12.2,19.3-13.6
			c-0.2-0.6-5.5-5.6-11.7-11.3l-11.4-10.3l-4.4,2.9c-11.7,7.9-28.2,11.3-41.7,8.5c-19.9-4.1-35-16.1-44.2-35.1
			c-9.4-19.5-8.2-46.1,2.8-64.1l3.1-4.9l-11.4-10.8c-6.3-5.9-11.7-10.7-12.1-10.8S1044.6,443,1042.9,445.6z"/>
		<path class="st2" d="M1109.5,487.3c-10.3,6.4-11.7,21.4-2.8,28.9c11.7,9.8,27.9,3.2,29.9-12.2c0.7-5.1-2.5-12-7.2-15.6
			C1124.1,484.4,1115.1,483.9,1109.5,487.3z"/>
	</g>
</g>
</svg>
